<mxfile host="app.diagrams.net" modified="2023-05-16T19:47:47.969Z" agent="Mozilla/5.0 (Windows NT 10.0; Win64; x64) AppleWebKit/537.36 (KHTML, like Gecko) Chrome/113.0.0.0 Safari/537.36" etag="lqB1WKasPY0uVQwgZcor" version="21.3.0" type="onedrive">
  <diagram name="Página-1" id="QPWu2_NFJAChiWwNMVYX">
    <mxGraphModel grid="0" page="0" gridSize="10" guides="1" tooltips="1" connect="1" arrows="1" fold="1" pageScale="1" pageWidth="827" pageHeight="1169" math="0" shadow="0">
      <root>
        <mxCell id="0" />
        <mxCell id="1" parent="0" />
        <mxCell id="fOjNhFxVHKonF1YvLAaq-1" value="" style="rounded=0;whiteSpace=wrap;html=1;fillColor=#dae8fc;strokeColor=#6c8ebf;" vertex="1" parent="1">
          <mxGeometry x="260" y="-30" width="530" height="790" as="geometry" />
        </mxCell>
        <mxCell id="fOjNhFxVHKonF1YvLAaq-3" value="&lt;font size=&quot;3&quot;&gt;Calificar&amp;nbsp;&lt;br&gt;video&lt;br&gt;&lt;/font&gt;" style="ellipse;whiteSpace=wrap;html=1;" vertex="1" parent="1">
          <mxGeometry x="308" y="30" width="106" height="60" as="geometry" />
        </mxCell>
        <mxCell id="fOjNhFxVHKonF1YvLAaq-7" value="&lt;font size=&quot;3&quot;&gt;Contratar&amp;nbsp;&lt;br&gt;proveedores&lt;br&gt;&lt;/font&gt;" style="ellipse;whiteSpace=wrap;html=1;" vertex="1" parent="1">
          <mxGeometry x="530" y="60" width="106" height="60" as="geometry" />
        </mxCell>
        <mxCell id="fOjNhFxVHKonF1YvLAaq-8" value="&lt;font size=&quot;3&quot;&gt;Subir&lt;br&gt;video&lt;br&gt;&lt;/font&gt;" style="ellipse;whiteSpace=wrap;html=1;" vertex="1" parent="1">
          <mxGeometry x="350" y="170" width="106" height="60" as="geometry" />
        </mxCell>
        <mxCell id="fOjNhFxVHKonF1YvLAaq-9" value="&lt;font size=&quot;3&quot;&gt;Gestionar&lt;br&gt;Servicios&lt;br&gt;&lt;/font&gt;" style="ellipse;whiteSpace=wrap;html=1;" vertex="1" parent="1">
          <mxGeometry x="530" y="190" width="106" height="60" as="geometry" />
        </mxCell>
        <mxCell id="fOjNhFxVHKonF1YvLAaq-10" value="&lt;font size=&quot;3&quot;&gt;Inscribirse&lt;/font&gt;" style="ellipse;whiteSpace=wrap;html=1;" vertex="1" parent="1">
          <mxGeometry x="320" y="280" width="106" height="60" as="geometry" />
        </mxCell>
        <mxCell id="fOjNhFxVHKonF1YvLAaq-11" value="&lt;font size=&quot;3&quot;&gt;Seleccionar Categoria&lt;/font&gt;" style="ellipse;whiteSpace=wrap;html=1;" vertex="1" parent="1">
          <mxGeometry x="430" y="400" width="106" height="60" as="geometry" />
        </mxCell>
        <mxCell id="fOjNhFxVHKonF1YvLAaq-12" value="&lt;font size=&quot;3&quot;&gt;Gestionar&lt;br&gt;Etapas&lt;br&gt;&lt;/font&gt;" style="ellipse;whiteSpace=wrap;html=1;" vertex="1" parent="1">
          <mxGeometry x="640" y="290" width="106" height="60" as="geometry" />
        </mxCell>
        <mxCell id="fOjNhFxVHKonF1YvLAaq-13" value="&lt;font size=&quot;3&quot;&gt;Gestionar&amp;nbsp;&lt;br&gt;Competición&lt;br&gt;&lt;/font&gt;" style="ellipse;whiteSpace=wrap;html=1;" vertex="1" parent="1">
          <mxGeometry x="536" y="460" width="106" height="60" as="geometry" />
        </mxCell>
        <mxCell id="fOjNhFxVHKonF1YvLAaq-14" value="&lt;font size=&quot;3&quot;&gt;Gestionar Equipos&lt;/font&gt;" style="ellipse;whiteSpace=wrap;html=1;" vertex="1" parent="1">
          <mxGeometry x="640" y="670" width="106" height="60" as="geometry" />
        </mxCell>
        <mxCell id="fOjNhFxVHKonF1YvLAaq-15" value="&lt;font size=&quot;3&quot;&gt;Registro de&amp;nbsp;&lt;br&gt;Atletas&lt;br&gt;&lt;/font&gt;" style="ellipse;whiteSpace=wrap;html=1;" vertex="1" parent="1">
          <mxGeometry x="490" y="670" width="106" height="60" as="geometry" />
        </mxCell>
        <mxCell id="fOjNhFxVHKonF1YvLAaq-16" value="&lt;font size=&quot;3&quot;&gt;Vender&amp;nbsp;&lt;br&gt;Fotos&lt;br&gt;&lt;/font&gt;" style="ellipse;whiteSpace=wrap;html=1;" vertex="1" parent="1">
          <mxGeometry x="310" y="470" width="106" height="60" as="geometry" />
        </mxCell>
        <mxCell id="fOjNhFxVHKonF1YvLAaq-17" value="&lt;font size=&quot;3&quot;&gt;Subir&amp;nbsp;&lt;br&gt;Multimedia&lt;br&gt;&lt;/font&gt;" style="ellipse;whiteSpace=wrap;html=1;" vertex="1" parent="1">
          <mxGeometry x="330" y="620" width="106" height="60" as="geometry" />
        </mxCell>
        <mxCell id="fOjNhFxVHKonF1YvLAaq-19" value="" style="endArrow=none;html=1;rounded=0;entryX=0;entryY=0.5;entryDx=0;entryDy=0;" edge="1" parent="1" target="fOjNhFxVHKonF1YvLAaq-3">
          <mxGeometry width="50" height="50" relative="1" as="geometry">
            <mxPoint x="155" y="116.7303370786517" as="sourcePoint" />
            <mxPoint x="400" y="370" as="targetPoint" />
          </mxGeometry>
        </mxCell>
        <mxCell id="fOjNhFxVHKonF1YvLAaq-22" value="&lt;font size=&quot;3&quot;&gt;Administrador&lt;br&gt;&lt;/font&gt;" style="shape=umlActor;verticalLabelPosition=bottom;verticalAlign=top;html=1;outlineConnect=0;" vertex="1" parent="1">
          <mxGeometry x="920" y="70" width="60" height="100" as="geometry" />
        </mxCell>
        <mxCell id="fOjNhFxVHKonF1YvLAaq-23" value="&lt;font size=&quot;3&quot;&gt;Gimnasios&lt;br&gt;&lt;/font&gt;" style="shape=umlActor;verticalLabelPosition=bottom;verticalAlign=top;html=1;outlineConnect=0;" vertex="1" parent="1">
          <mxGeometry x="920" y="450" width="60" height="100" as="geometry" />
        </mxCell>
        <mxCell id="fOjNhFxVHKonF1YvLAaq-26" value="" style="endArrow=none;html=1;rounded=0;entryX=0;entryY=0.5;entryDx=0;entryDy=0;" edge="1" parent="1" target="fOjNhFxVHKonF1YvLAaq-10">
          <mxGeometry width="50" height="50" relative="1" as="geometry">
            <mxPoint x="163" y="322" as="sourcePoint" />
            <mxPoint x="330" y="230" as="targetPoint" />
          </mxGeometry>
        </mxCell>
        <mxCell id="fOjNhFxVHKonF1YvLAaq-27" value="" style="endArrow=none;html=1;rounded=0;entryX=0;entryY=0.5;entryDx=0;entryDy=0;" edge="1" parent="1" target="fOjNhFxVHKonF1YvLAaq-17">
          <mxGeometry width="50" height="50" relative="1" as="geometry">
            <mxPoint x="160" y="562" as="sourcePoint" />
            <mxPoint x="330" y="540" as="targetPoint" />
          </mxGeometry>
        </mxCell>
        <mxCell id="fOjNhFxVHKonF1YvLAaq-28" value="" style="endArrow=none;html=1;rounded=0;exitX=1;exitY=0.5;exitDx=0;exitDy=0;" edge="1" parent="1" source="fOjNhFxVHKonF1YvLAaq-9">
          <mxGeometry width="50" height="50" relative="1" as="geometry">
            <mxPoint x="710" y="270" as="sourcePoint" />
            <mxPoint x="910" y="140" as="targetPoint" />
          </mxGeometry>
        </mxCell>
        <mxCell id="fOjNhFxVHKonF1YvLAaq-29" value="" style="endArrow=none;html=1;rounded=0;exitX=1;exitY=0;exitDx=0;exitDy=0;" edge="1" parent="1" source="fOjNhFxVHKonF1YvLAaq-12">
          <mxGeometry width="50" height="50" relative="1" as="geometry">
            <mxPoint x="646" y="230" as="sourcePoint" />
            <mxPoint x="910" y="140" as="targetPoint" />
          </mxGeometry>
        </mxCell>
        <mxCell id="fOjNhFxVHKonF1YvLAaq-30" value="" style="endArrow=none;html=1;rounded=0;exitX=1;exitY=0.5;exitDx=0;exitDy=0;" edge="1" parent="1" source="fOjNhFxVHKonF1YvLAaq-13">
          <mxGeometry width="50" height="50" relative="1" as="geometry">
            <mxPoint x="646" y="480" as="sourcePoint" />
            <mxPoint x="910" y="530" as="targetPoint" />
          </mxGeometry>
        </mxCell>
        <mxCell id="fOjNhFxVHKonF1YvLAaq-31" value="" style="endArrow=open;dashed=1;html=1;dashPattern=1 3;strokeWidth=2;rounded=0;exitX=1;exitY=1;exitDx=0;exitDy=0;entryX=0.5;entryY=0;entryDx=0;entryDy=0;endFill=0;" edge="1" parent="1" source="fOjNhFxVHKonF1YvLAaq-13" target="fOjNhFxVHKonF1YvLAaq-14">
          <mxGeometry width="50" height="50" relative="1" as="geometry">
            <mxPoint x="570" y="470" as="sourcePoint" />
            <mxPoint x="620" y="420" as="targetPoint" />
          </mxGeometry>
        </mxCell>
        <mxCell id="fOjNhFxVHKonF1YvLAaq-35" value="&lt;span style=&quot;font-size: 14px;&quot;&gt;&amp;lt;&amp;lt; extend &amp;gt;&amp;gt;&lt;/span&gt;" style="edgeLabel;html=1;align=center;verticalAlign=middle;resizable=0;points=[];" connectable="0" vertex="1" parent="fOjNhFxVHKonF1YvLAaq-31">
          <mxGeometry x="-0.2393" y="2" relative="1" as="geometry">
            <mxPoint as="offset" />
          </mxGeometry>
        </mxCell>
        <mxCell id="fOjNhFxVHKonF1YvLAaq-36" value="" style="endArrow=open;dashed=1;html=1;dashPattern=1 3;strokeWidth=2;rounded=0;exitX=0.5;exitY=1;exitDx=0;exitDy=0;entryX=0.5;entryY=0;entryDx=0;entryDy=0;endFill=0;" edge="1" parent="1" source="fOjNhFxVHKonF1YvLAaq-13" target="fOjNhFxVHKonF1YvLAaq-15">
          <mxGeometry width="50" height="50" relative="1" as="geometry">
            <mxPoint x="575" y="520" as="sourcePoint" />
            <mxPoint x="642" y="679" as="targetPoint" />
          </mxGeometry>
        </mxCell>
        <mxCell id="fOjNhFxVHKonF1YvLAaq-37" value="&lt;span style=&quot;font-size: 14px;&quot;&gt;&amp;lt;&amp;lt; extend &amp;gt;&amp;gt;&lt;/span&gt;" style="edgeLabel;html=1;align=center;verticalAlign=middle;resizable=0;points=[];" connectable="0" vertex="1" parent="fOjNhFxVHKonF1YvLAaq-36">
          <mxGeometry x="-0.2393" y="2" relative="1" as="geometry">
            <mxPoint as="offset" />
          </mxGeometry>
        </mxCell>
        <mxCell id="fOjNhFxVHKonF1YvLAaq-38" value="" style="endArrow=open;dashed=1;html=1;dashPattern=1 3;strokeWidth=2;rounded=0;exitX=0.5;exitY=0;exitDx=0;exitDy=0;entryX=0.5;entryY=1;entryDx=0;entryDy=0;endFill=0;" edge="1" parent="1" source="fOjNhFxVHKonF1YvLAaq-17" target="fOjNhFxVHKonF1YvLAaq-16">
          <mxGeometry width="50" height="50" relative="1" as="geometry">
            <mxPoint x="599" y="530" as="sourcePoint" />
            <mxPoint x="553" y="680" as="targetPoint" />
          </mxGeometry>
        </mxCell>
        <mxCell id="fOjNhFxVHKonF1YvLAaq-39" value="&lt;span style=&quot;font-size: 14px;&quot;&gt;&amp;lt;&amp;lt; extend &amp;gt;&amp;gt;&lt;/span&gt;" style="edgeLabel;html=1;align=center;verticalAlign=middle;resizable=0;points=[];" connectable="0" vertex="1" parent="fOjNhFxVHKonF1YvLAaq-38">
          <mxGeometry x="-0.2393" y="2" relative="1" as="geometry">
            <mxPoint as="offset" />
          </mxGeometry>
        </mxCell>
        <mxCell id="fOjNhFxVHKonF1YvLAaq-40" value="" style="endArrow=open;dashed=1;html=1;dashPattern=1 3;strokeWidth=2;rounded=0;exitX=0.5;exitY=1;exitDx=0;exitDy=0;entryX=0.5;entryY=0;entryDx=0;entryDy=0;endFill=0;" edge="1" parent="1" source="fOjNhFxVHKonF1YvLAaq-9" target="fOjNhFxVHKonF1YvLAaq-13">
          <mxGeometry width="50" height="50" relative="1" as="geometry">
            <mxPoint x="510" y="545" as="sourcePoint" />
            <mxPoint x="490" y="455" as="targetPoint" />
          </mxGeometry>
        </mxCell>
        <mxCell id="fOjNhFxVHKonF1YvLAaq-41" value="&lt;span style=&quot;font-size: 14px;&quot;&gt;&amp;lt;&amp;lt; extend &amp;gt;&amp;gt;&lt;/span&gt;" style="edgeLabel;html=1;align=center;verticalAlign=middle;resizable=0;points=[];" connectable="0" vertex="1" parent="fOjNhFxVHKonF1YvLAaq-40">
          <mxGeometry x="-0.2393" y="2" relative="1" as="geometry">
            <mxPoint as="offset" />
          </mxGeometry>
        </mxCell>
        <mxCell id="fOjNhFxVHKonF1YvLAaq-42" value="" style="endArrow=open;dashed=1;html=1;dashPattern=1 3;strokeWidth=2;rounded=0;exitX=0.5;exitY=1;exitDx=0;exitDy=0;entryX=1;entryY=0;entryDx=0;entryDy=0;endFill=0;" edge="1" parent="1" source="fOjNhFxVHKonF1YvLAaq-12" target="fOjNhFxVHKonF1YvLAaq-13">
          <mxGeometry width="50" height="50" relative="1" as="geometry">
            <mxPoint x="593" y="260" as="sourcePoint" />
            <mxPoint x="599" y="470" as="targetPoint" />
          </mxGeometry>
        </mxCell>
        <mxCell id="fOjNhFxVHKonF1YvLAaq-43" value="&lt;span style=&quot;font-size: 14px;&quot;&gt;&amp;lt;&amp;lt; extend &amp;gt;&amp;gt;&lt;/span&gt;" style="edgeLabel;html=1;align=center;verticalAlign=middle;resizable=0;points=[];" connectable="0" vertex="1" parent="fOjNhFxVHKonF1YvLAaq-42">
          <mxGeometry x="-0.2393" y="2" relative="1" as="geometry">
            <mxPoint as="offset" />
          </mxGeometry>
        </mxCell>
        <mxCell id="fOjNhFxVHKonF1YvLAaq-44" value="" style="endArrow=open;dashed=1;html=1;dashPattern=1 3;strokeWidth=2;rounded=0;exitX=0.5;exitY=1;exitDx=0;exitDy=0;endFill=0;entryX=0.5;entryY=0;entryDx=0;entryDy=0;" edge="1" parent="1" source="fOjNhFxVHKonF1YvLAaq-7" target="fOjNhFxVHKonF1YvLAaq-9">
          <mxGeometry width="50" height="50" relative="1" as="geometry">
            <mxPoint x="593" y="260" as="sourcePoint" />
            <mxPoint x="599" y="470" as="targetPoint" />
          </mxGeometry>
        </mxCell>
        <mxCell id="fOjNhFxVHKonF1YvLAaq-45" value="&lt;span style=&quot;font-size: 14px;&quot;&gt;&amp;lt;&amp;lt; include &amp;gt;&amp;gt;&lt;/span&gt;" style="edgeLabel;html=1;align=center;verticalAlign=middle;resizable=0;points=[];" connectable="0" vertex="1" parent="fOjNhFxVHKonF1YvLAaq-44">
          <mxGeometry x="-0.2393" y="2" relative="1" as="geometry">
            <mxPoint as="offset" />
          </mxGeometry>
        </mxCell>
        <mxCell id="fOjNhFxVHKonF1YvLAaq-46" value="" style="endArrow=open;dashed=1;html=1;dashPattern=1 3;strokeWidth=2;rounded=0;exitX=0.5;exitY=0;exitDx=0;exitDy=0;endFill=0;entryX=0.5;entryY=1;entryDx=0;entryDy=0;" edge="1" parent="1" source="fOjNhFxVHKonF1YvLAaq-8" target="fOjNhFxVHKonF1YvLAaq-3">
          <mxGeometry width="50" height="50" relative="1" as="geometry">
            <mxPoint x="593" y="100" as="sourcePoint" />
            <mxPoint x="593" y="200" as="targetPoint" />
          </mxGeometry>
        </mxCell>
        <mxCell id="fOjNhFxVHKonF1YvLAaq-47" value="&lt;span style=&quot;font-size: 14px;&quot;&gt;&amp;lt;&amp;lt; extend &amp;gt;&amp;gt;&lt;/span&gt;" style="edgeLabel;html=1;align=center;verticalAlign=middle;resizable=0;points=[];" connectable="0" vertex="1" parent="fOjNhFxVHKonF1YvLAaq-46">
          <mxGeometry x="-0.2393" y="2" relative="1" as="geometry">
            <mxPoint as="offset" />
          </mxGeometry>
        </mxCell>
        <mxCell id="fOjNhFxVHKonF1YvLAaq-48" value="" style="endArrow=open;dashed=1;html=1;dashPattern=1 3;strokeWidth=2;rounded=0;exitX=0;exitY=0;exitDx=0;exitDy=0;endFill=0;entryX=1;entryY=1;entryDx=0;entryDy=0;" edge="1" parent="1" source="fOjNhFxVHKonF1YvLAaq-11" target="fOjNhFxVHKonF1YvLAaq-10">
          <mxGeometry width="50" height="50" relative="1" as="geometry">
            <mxPoint x="383" y="200" as="sourcePoint" />
            <mxPoint x="371" y="100" as="targetPoint" />
          </mxGeometry>
        </mxCell>
        <mxCell id="fOjNhFxVHKonF1YvLAaq-49" value="&lt;span style=&quot;font-size: 14px;&quot;&gt;&amp;lt;&amp;lt; include &amp;gt;&amp;gt;&lt;/span&gt;" style="edgeLabel;html=1;align=center;verticalAlign=middle;resizable=0;points=[];" connectable="0" vertex="1" parent="fOjNhFxVHKonF1YvLAaq-48">
          <mxGeometry x="-0.2393" y="2" relative="1" as="geometry">
            <mxPoint as="offset" />
          </mxGeometry>
        </mxCell>
        <mxCell id="fOjNhFxVHKonF1YvLAaq-50" value="" style="endArrow=open;dashed=1;html=1;dashPattern=1 3;strokeWidth=2;rounded=0;exitX=0.5;exitY=1;exitDx=0;exitDy=0;endFill=0;entryX=0.5;entryY=0;entryDx=0;entryDy=0;" edge="1" parent="1" source="fOjNhFxVHKonF1YvLAaq-8" target="fOjNhFxVHKonF1YvLAaq-10">
          <mxGeometry width="50" height="50" relative="1" as="geometry">
            <mxPoint x="455" y="419" as="sourcePoint" />
            <mxPoint x="421" y="341" as="targetPoint" />
          </mxGeometry>
        </mxCell>
        <mxCell id="fOjNhFxVHKonF1YvLAaq-51" value="&lt;span style=&quot;font-size: 14px;&quot;&gt;&amp;lt;&amp;lt; include &amp;gt;&amp;gt;&lt;/span&gt;" style="edgeLabel;html=1;align=center;verticalAlign=middle;resizable=0;points=[];" connectable="0" vertex="1" parent="fOjNhFxVHKonF1YvLAaq-50">
          <mxGeometry x="-0.2393" y="2" relative="1" as="geometry">
            <mxPoint as="offset" />
          </mxGeometry>
        </mxCell>
        <mxCell id="fOjNhFxVHKonF1YvLAaq-52" value="&lt;font style=&quot;font-size: 16px;&quot;&gt;System&lt;/font&gt;" style="text;html=1;align=center;verticalAlign=middle;resizable=0;points=[];autosize=1;strokeColor=none;fillColor=none;" vertex="1" parent="1">
          <mxGeometry x="503" y="-30" width="80" height="30" as="geometry" />
        </mxCell>
        <mxCell id="fOjNhFxVHKonF1YvLAaq-53" value="&lt;font face=&quot;Verdana&quot; style=&quot;font-size: 20px;&quot;&gt;&lt;b style=&quot;font-size: 20px;&quot;&gt;&lt;i style=&quot;font-size: 20px;&quot;&gt;Caso de Uso de gestión de&amp;nbsp;&lt;br style=&quot;font-size: 20px;&quot;&gt;Competencias CrossFit&lt;br style=&quot;font-size: 20px;&quot;&gt;&lt;/i&gt;&lt;/b&gt;&lt;/font&gt;" style="text;html=1;align=center;verticalAlign=middle;resizable=0;points=[];autosize=1;strokeColor=none;fillColor=none;fontSize=20;" vertex="1" parent="1">
          <mxGeometry x="365" y="-130" width="320" height="60" as="geometry" />
        </mxCell>
        <mxCell id="fOjNhFxVHKonF1YvLAaq-54" value="&lt;font size=&quot;3&quot;&gt;Jueces&lt;br&gt;&lt;/font&gt;" style="shape=umlActor;verticalLabelPosition=bottom;verticalAlign=top;html=1;outlineConnect=0;" vertex="1" parent="1">
          <mxGeometry x="92" y="55" width="60" height="100" as="geometry" />
        </mxCell>
        <mxCell id="fOjNhFxVHKonF1YvLAaq-55" value="&lt;font size=&quot;3&quot;&gt;Atleta&lt;br&gt;&lt;/font&gt;" style="shape=umlActor;verticalLabelPosition=bottom;verticalAlign=top;html=1;outlineConnect=0;" vertex="1" parent="1">
          <mxGeometry x="100" y="266" width="60" height="100" as="geometry" />
        </mxCell>
        <mxCell id="fOjNhFxVHKonF1YvLAaq-56" value="&lt;font size=&quot;3&quot;&gt;Fotografo&lt;br&gt;&lt;/font&gt;" style="shape=umlActor;verticalLabelPosition=bottom;verticalAlign=top;html=1;outlineConnect=0;" vertex="1" parent="1">
          <mxGeometry x="103" y="507" width="60" height="100" as="geometry" />
        </mxCell>
      </root>
    </mxGraphModel>
  </diagram>
</mxfile>
